<?xml version="1.0" encoding="UTF-8" standalone="no"?>
<!-- Created with Inkscape (http://www.inkscape.org/) -->

<svg
   xmlns:dc="http://purl.org/dc/elements/1.1/"
   xmlns:cc="http://creativecommons.org/ns#"
   xmlns:rdf="http://www.w3.org/1999/02/22-rdf-syntax-ns#"
   xmlns:svg="http://www.w3.org/2000/svg"
   xmlns="http://www.w3.org/2000/svg"
   xmlns:sodipodi="http://sodipodi.sourceforge.net/DTD/sodipodi-0.dtd"
   xmlns:inkscape="http://www.inkscape.org/namespaces/inkscape"
   width="50"
   height="50"
   viewBox="0 0 13.229166 13.229167"
   version="1.1"
   id="svg981"
   inkscape:version="0.92.3 (2405546, 2018-03-11)"
   sodipodi:docname="gotsite-smile.svg">
  <defs
     id="defs975" />
  <sodipodi:namedview
     id="base"
     pagecolor="#ffffff"
     bordercolor="#666666"
     borderopacity="1.0"
     inkscape:pageopacity="0.0"
     inkscape:pageshadow="2"
     inkscape:zoom="11.2"
     inkscape:cx="31.258742"
     inkscape:cy="23.421272"
     inkscape:document-units="mm"
     inkscape:current-layer="layer1"
     showgrid="false"
     units="px"
     inkscape:pagecheckerboard="true"
     inkscape:snap-bbox="true"
     inkscape:bbox-paths="true"
     inkscape:bbox-nodes="true"
     inkscape:snap-bbox-edge-midpoints="true"
     inkscape:snap-bbox-midpoints="true"
     inkscape:object-paths="true"
     inkscape:snap-intersection-paths="true"
     inkscape:snap-smooth-nodes="true"
     inkscape:snap-midpoints="true"
     inkscape:snap-object-midpoints="true"
     inkscape:snap-center="true"
     inkscape:snap-text-baseline="true"
     inkscape:snap-page="true"
     inkscape:window-width="1920"
     inkscape:window-height="1027"
     inkscape:window-x="-8"
     inkscape:window-y="-8"
     inkscape:window-maximized="1" />
  <metadata
     id="metadata978">
    <rdf:RDF>
      <cc:Work
         rdf:about="">
        <dc:format>image/svg+xml</dc:format>
        <dc:type
           rdf:resource="http://purl.org/dc/dcmitype/StillImage" />
        <dc:title></dc:title>
      </cc:Work>
    </rdf:RDF>
  </metadata>
  <g
     inkscape:label="Layer 1"
     inkscape:groupmode="layer"
     id="layer1"
     transform="translate(0,-283.77082)">
    <rect
       style="opacity:1;fill:#ffffff;fill-opacity:1;stroke:#ffffff;stroke-width:0.53735816;stroke-linecap:round;stroke-linejoin:round;stroke-miterlimit:4;stroke-dasharray:none;stroke-opacity:1"
       id="rect10005-5-3-1-3-1-2"
       width="5.9003043"
       height="6.9666247"
       x="3.4231944"
       y="286.57553" />
    <path
       d="m 12.691809,290.57315 q 0,2.73723 -1.600823,4.3183 -1.590956,1.57118 -4.4763972,1.57118 -2.8854414,0 -4.4862851,-1.57118 -1.59094555,-1.58107 -1.59094555,-4.3183 0,-2.75698 1.60083295,-4.32817 1.6107097,-1.57118 4.4763977,-1.57118 2.9052053,0 4.4862742,1.58107 1.590946,1.58107 1.590946,4.31828 z m -4.3775779,2.6977 q 0.3458653,-0.42491 0.5138434,-1.01781 0.1778762,-0.60279 0.1778762,-1.66012 0,-0.97829 -0.1778762,-1.64035 -0.1778655,-0.66208 -0.4940685,-1.05734 -0.3162247,-0.40516 -0.7608885,-0.57315 -0.4446852,-0.16798 -0.9585287,-0.16798 -0.5138542,0 -0.9190008,0.13834 -0.3952697,0.13835 -0.7608884,0.55337 -0.3260904,0.3854 -0.5237306,1.05735 -0.1877532,0.67195 -0.1877532,1.68976 0,0.90911 0.1679998,1.58107 0.1679889,0.66209 0.4940901,1.06722 0.3162139,0.38539 0.7509905,0.56325 0.4446853,0.17788 1.0079332,0.17788 0.4842029,0 0.9190115,-0.15812 0.4446745,-0.16798 0.7509902,-0.55337 z"
       style="font-style:normal;font-variant:normal;font-weight:bold;font-stretch:normal;font-size:medium;line-height:1.25;font-family:sans-serif;-inkscape-font-specification:'sans-serif Bold';letter-spacing:0px;word-spacing:0px;fill:#ffffff;fill-opacity:1;stroke:#ffffff;stroke-width:1.07471633;stroke-linecap:round;stroke-linejoin:round;stroke-miterlimit:4;stroke-dasharray:none;stroke-opacity:1"
       id="path7428-9-6-0-6-8-1-5-8-7"
       inkscape:connector-curvature="0" />
    <path
       style="fill:#ffffff;stroke:#002255;stroke-width:0.53735816;stroke-linecap:round;stroke-linejoin:round;stroke-miterlimit:4;stroke-dasharray:none;stroke-opacity:1"
       d="m 2.4469571,292.94062 c 1.1628108,2.76757 7.1081629,2.7882 8.3945549,0"
       id="path10075-0-9-3-3-1-5-6"
       inkscape:connector-curvature="0"
       sodipodi:nodetypes="cc" />
  </g>
</svg>
